<svg width="81" height="80" viewBox="0 0 81 80" fill="none" xmlns="http://www.w3.org/2000/svg">
<path d="M32.8645 12.0836H32.9427C32.9319 12.2283 32.8979 12.3651 32.8979 12.5129C32.8979 16.3617 36.0181 19.4814 39.8722 19.4814C43.72 19.4814 46.8404 16.3619 46.8404 12.5129C46.8404 12.3651 46.8064 12.2283 46.7963 12.0836H46.8747C48.2768 12.0836 49.4139 10.9468 49.4139 9.54437C49.4139 4.2823 45.1331 0 39.8691 0C34.6055 0 30.3252 4.2823 30.3252 9.54437C30.3252 10.9468 31.4614 12.0836 32.8645 12.0836ZM34.7908 4.74124V5.46043C34.7908 6.16198 35.359 6.72982 36.0609 6.72982C36.762 6.72982 37.33 6.16182 37.33 5.46043V3.03087C37.7362 2.87266 38.1587 2.74777 38.6 2.66695V5.46027C38.6 6.16182 39.1682 6.72966 39.8689 6.72966C40.571 6.72966 41.1388 6.16166 41.1388 5.46027V2.66711C41.5793 2.74777 42.0015 2.87283 42.4079 3.03103V5.46059C42.4079 6.16215 42.977 6.72999 43.6781 6.72999C44.3788 6.72999 44.947 6.16198 44.947 5.46059V4.74124C46.1341 5.99643 46.8743 7.67889 46.8743 9.54437H32.8641C32.8645 7.67889 33.6052 5.9966 34.7908 4.74124Z" fill="#D4C17F"/>
<path d="M58.724 74.16H48.1776C48.23 73.9148 48.3262 73.6868 48.3262 73.4259L48.3102 41.4051L48.3035 41.4065C47.904 41.5017 47.5082 41.5473 47.1148 41.5473C45.3074 41.5473 43.6653 40.5554 42.7631 39.0067H41.775V42.1311C43.1954 42.2232 44.1549 43.4673 44.1549 44.6377C44.1549 45.5969 43.6029 46.4026 42.8156 46.8343C42.8493 46.9463 42.8862 47.0559 42.8862 47.1768C42.8862 47.8224 42.3956 48.3344 41.7729 48.4152V50.3509C41.7729 50.3525 41.7729 50.355 41.7729 50.355L42.6958 50.3566C43.1598 50.3566 43.6001 50.556 43.9054 50.9039C44.2098 51.2518 44.3485 51.7134 44.2881 52.1725L42.6145 64.8646L42.0801 68.925C42.0276 69.3162 41.6947 69.6085 41.3012 69.6085H41.1392V74.1601H38.6003V69.6085H38.4277C38.0341 69.6085 37.7 69.3164 37.6481 68.925L37.1141 64.8749L35.4403 52.1723C35.3803 51.7132 35.519 51.2516 35.8233 50.9037C36.1288 50.5558 36.5688 50.3565 37.0328 50.3565H37.9609C37.9609 50.3565 37.9609 50.3524 37.9609 50.3507V48.4142C37.3412 48.3318 36.8533 47.8206 36.8533 47.1767C36.8533 47.0559 36.8904 46.9463 36.9239 46.8342C36.1366 46.4023 35.5836 45.5968 35.5836 44.6376C35.5836 43.4671 36.5431 42.2232 37.9639 42.131V39.0065H36.9755C36.0742 40.5551 34.4313 41.5471 32.6251 41.5471C32.2313 41.5471 31.8349 41.5016 31.4363 41.4064L31.4153 41.401L31.4123 73.4258C31.4123 73.6867 31.5087 73.9146 31.5609 74.1598H21.0159C19.4017 74.1598 18.0957 75.4671 18.0957 77.0798C18.0957 78.6918 19.4017 79.9998 21.0159 79.9998H58.7243C60.3372 79.9998 61.6441 78.6918 61.6441 77.0798C61.6438 75.4673 60.3369 74.16 58.724 74.16Z" fill="#D4C17F"/>
<path d="M56.5963 62.4034C56.3899 62.4386 56.2059 62.5547 56.0828 62.7257L54.3855 65.1191C54.1694 65.4223 54.2427 65.8462 54.547 66.0623L57.4334 68.1134C57.5788 68.2174 57.7614 68.2591 57.939 68.2292C58.1163 68.199 58.275 68.0997 58.3774 67.9528L59.6206 66.2032C60.1242 65.492 59.9565 64.5064 59.2458 64.0001L57.1852 62.5379C57.0157 62.4168 56.8025 62.3681 56.5963 62.4034Z" fill="#D4C17F"/>
<path d="M65.7364 55.5875L64.988 53.5765C64.6855 52.7589 63.7764 52.3431 62.9575 52.6471L60.5898 53.5269C60.1813 53.6783 59.972 54.1328 60.1256 54.5423L61.148 57.2925C61.2788 57.6432 61.6664 57.8221 62.0163 57.6917L65.3378 56.4582C65.5074 56.3956 65.6421 56.2693 65.7187 56.1052C65.7942 55.9419 65.7991 55.7555 65.7364 55.5875Z" fill="#D4C17F"/>
<path d="M23.617 65L21.2493 65.88C20.8408 66.0312 20.6317 66.4863 20.7853 66.8958L21.8077 69.646C21.9388 69.9966 22.3262 70.1752 22.6763 70.0446L25.9974 68.8117C26.1671 68.7492 26.3019 68.6228 26.3783 68.4583C26.4534 68.2958 26.4585 68.1092 26.396 67.9407L25.6474 65.9296C25.3454 65.1121 24.4361 64.6966 23.617 65Z" fill="#D4C17F"/>
<path d="M68.9794 69.7346L67.8274 68.8468C67.6212 68.6893 67.3632 68.6189 67.1046 68.6525C66.847 68.6861 66.6148 68.8205 66.4561 69.0253L65.7521 69.9444C65.4208 70.3717 65.5013 70.9859 65.9297 71.3147L67.0817 72.2011C67.2246 72.3116 67.4048 72.3598 67.5844 72.3364C67.7648 72.3141 67.9263 72.2204 68.0354 72.0772L69.1044 70.6884C69.3345 70.3902 69.277 69.9629 68.9794 69.7346Z" fill="#D4C17F"/>
<path d="M13.5437 68.8468C13.3375 68.6893 13.0796 68.6189 12.8211 68.6525C12.5633 68.6861 12.3311 68.8205 12.1724 69.0253L11.4686 69.9444C11.1372 70.3717 11.2177 70.9859 11.6451 71.3147L12.7981 72.2011C12.9409 72.3116 13.1212 72.3598 13.3006 72.3364C13.4812 72.3141 13.643 72.2204 13.7517 72.0772L14.8208 70.6884C15.0507 70.3902 14.9932 69.9629 14.6959 69.7346L13.5437 68.8468Z" fill="#D4C17F"/>
<path d="M26.1749 52.5333L25.0219 51.6457C24.8163 51.4879 24.5577 51.4177 24.2999 51.4513C24.0425 51.4854 23.8103 51.6198 23.6505 51.824L22.9445 52.7432C22.6154 53.1708 22.6967 53.7849 23.1241 54.1133L24.2764 54.9999C24.4201 55.1104 24.5994 55.1591 24.7798 55.1352C24.9594 55.1133 25.121 55.0191 25.231 54.8758L26.2999 53.4877C26.529 53.1891 26.4712 52.7613 26.1749 52.5333Z" fill="#D4C17F"/>
<path d="M22.8956 37.2037L31.9257 39.3662C32.1577 39.4212 32.3926 39.4485 32.6217 39.4485C33.2533 39.4485 33.8471 39.2323 34.3449 38.8764C34.908 38.4733 35.3433 37.8885 35.519 37.1605C35.8075 35.951 35.3097 34.7415 34.3606 34.0543C34.0535 33.8329 33.7035 33.6622 33.3129 33.5686L29.3194 32.6127L30.9949 30.8558L31.4151 30.4135V30.9559L33.8027 31.5278C35.2107 31.8654 36.3317 32.7652 37.004 33.9278H37.967V32.2101C37.9686 31.1581 38.8212 30.3054 39.8723 30.3054C40.9252 30.3054 41.7779 31.1581 41.7779 32.2101V33.9278H42.7347C43.407 32.7652 44.5282 31.8654 45.936 31.5278L48.3104 30.9598V30.4006L48.7437 30.8558L50.4204 32.6127L46.4256 33.5686C46.0351 33.662 45.6864 33.8328 45.3776 34.0543C44.4289 34.7415 43.9314 35.951 44.2207 37.1605C44.3951 37.8885 44.8304 38.4733 45.3938 38.8764C45.8914 39.2323 46.4864 39.4485 47.1171 39.4485C47.3468 39.4485 47.5809 39.4212 47.8129 39.3662L56.8443 37.2037C57.8812 36.9549 58.7081 36.1717 59.0074 35.1495C59.3099 34.1262 59.0441 33.0197 58.3063 32.248L55.491 29.2954L48.3314 21.7846C47.6493 21.0637 46.9869 20.8213 45.1933 20.8213H34.5332C32.7206 20.8213 32.0874 21.065 31.407 21.7846L24.2477 29.2954L21.4321 32.248C20.6943 33.0199 20.4286 34.1263 20.731 35.1495C21.0314 36.1717 21.8574 36.9549 22.8956 37.2037Z" fill="#D4C17F"/>
</svg>
