<svg width="81" height="81" viewBox="0 0 81 81" fill="none" xmlns="http://www.w3.org/2000/svg">
<g clip-path="url(#clip0_94_118)">
<path d="M17.7843 35.1336C22.5115 35.1336 26.3557 31.2893 26.3557 26.5622C26.3557 21.835 22.5115 17.9907 17.7843 17.9907C13.0572 17.9907 9.21289 21.835 9.21289 26.5622C9.21289 31.2893 13.0572 35.1336 17.7843 35.1336ZM17.7843 20.8479C20.9357 20.8479 23.4986 23.4107 23.4986 26.5622C23.4986 29.7136 20.9357 32.2764 17.7843 32.2764C14.6329 32.2764 12.07 29.7136 12.07 26.5622C12.07 23.4107 14.6329 20.8479 17.7843 20.8479Z" fill="#D4C17F"/>
<path d="M63.4987 35.1336C68.2258 35.1336 72.0701 31.2893 72.0701 26.5622C72.0701 21.835 68.2258 17.9907 63.4987 17.9907C58.7715 17.9907 54.9272 21.835 54.9272 26.5622C54.9272 31.2893 58.7715 35.1336 63.4987 35.1336ZM63.4987 20.8479C66.6501 20.8479 69.213 23.4107 69.213 26.5622C69.213 29.7136 66.6501 32.2764 63.4987 32.2764C60.3472 32.2764 57.7844 29.7136 57.7844 26.5622C57.7844 23.4107 60.3472 20.8479 63.4987 20.8479Z" fill="#D4C17F"/>
<path d="M77.7845 37.9907V56.5622C77.7845 58.925 75.8616 60.8479 73.4987 60.8479V45.1336C73.4987 41.195 70.2945 37.9907 66.3559 37.9907H59.213C58.4245 37.9907 57.7845 38.6307 57.7845 39.4193V45.1336V46.5622V47.9907H46.3559C45.5673 47.9907 44.9273 48.6307 44.9273 49.4193V53.705H36.3559V49.4193C36.3559 48.6307 35.7159 47.9907 34.9273 47.9907H23.4987V46.5622V45.1336V39.4193C23.4987 38.6307 22.8587 37.9907 22.0702 37.9907H14.9273C10.9887 37.9907 7.78446 41.195 7.78446 45.1336V60.8479C5.4216 60.8479 3.49874 58.925 3.49874 56.5622V37.9907H0.641602V56.5622C0.641602 59.4836 2.40874 61.9936 4.92732 63.0993V80.8479H7.78446V63.705H9.21303H10.6416H22.0702V79.4193C22.0702 80.2079 22.7102 80.8479 23.4987 80.8479H27.7845H29.213H30.6416V79.4193V57.9907V56.5622H34.9273H46.3559H50.6416V57.9907V79.4193V80.8479H52.0702H53.4987H57.7845C58.573 80.8479 59.213 80.2079 59.213 79.4193V63.705H70.6416H72.0702H73.4987V80.8479H76.3559V63.0993C78.8745 61.9936 80.6416 59.4836 80.6416 56.5622V37.9907H77.7845ZM29.213 53.705H26.3559H17.7845V45.1336H14.9273V55.1336C14.9273 55.9222 15.5673 56.5622 16.3559 56.5622H26.3559C27.143 56.5622 27.7845 57.2036 27.7845 57.9907V77.9907H24.9273V62.2764C24.9273 61.4879 24.2873 60.8479 23.4987 60.8479H10.6416V45.1336C10.6416 42.7707 12.5645 40.8479 14.9273 40.8479H20.6416V45.1336V46.5622V49.4193C20.6416 50.2079 21.2816 50.8479 22.0702 50.8479H33.4987V53.705H29.213ZM57.7845 60.8479C56.9959 60.8479 56.3559 61.4879 56.3559 62.2764V77.9907H53.4987V57.9907C53.4987 57.2036 54.1402 56.5622 54.9273 56.5622H64.9273C65.7159 56.5622 66.3559 55.9222 66.3559 55.1336V45.1336H63.4987V53.705H54.9273H52.0702H47.7845V50.8479H59.213C60.0016 50.8479 60.6416 50.2079 60.6416 49.4193V46.5622V45.1336V40.8479H66.3559C68.7187 40.8479 70.6416 42.7707 70.6416 45.1336V60.8479H57.7845Z" fill="#D4C17F"/>
<path d="M27.7842 15.1336V19.4193C27.7842 20.035 28.1771 20.5793 28.7614 20.775C28.91 20.8236 29.0628 20.8478 29.2128 20.8478C29.6542 20.8478 30.08 20.6421 30.3557 20.2764L34.2128 15.1336H44.9271C47.29 15.1336 49.2128 13.2107 49.2128 10.8478V5.13355C49.2128 2.7707 47.29 0.847839 44.9271 0.847839H27.7842C25.4214 0.847839 23.4985 2.7707 23.4985 5.13355V10.8478C23.4985 13.2107 25.4214 15.1336 27.7842 15.1336ZM26.3557 5.13355C26.3557 4.34641 26.9971 3.70498 27.7842 3.70498H44.9271C45.7142 3.70498 46.3557 4.34641 46.3557 5.13355V10.8478C46.3557 11.635 45.7142 12.2764 44.9271 12.2764H33.4985C33.0485 12.2764 32.6257 12.4878 32.3557 12.8478L30.6414 15.1336V13.705C30.6414 12.9164 30.0014 12.2764 29.2128 12.2764H27.7842C26.9971 12.2764 26.3557 11.635 26.3557 10.8478V5.13355Z" fill="#D4C17F"/>
<path d="M43.4986 6.56213H29.2129V9.41928H43.4986V6.56213Z" fill="#D4C17F"/>
<path d="M47.7843 36.5621H39.2129V39.4193H47.7843V36.5621Z" fill="#D4C17F"/>
<path d="M37.7842 30.8478C35.4214 30.8478 33.4985 32.7707 33.4985 35.1336V40.8478C33.4985 43.2107 35.4214 45.1336 37.7842 45.1336H49.2128C51.5757 45.1336 53.4985 43.2107 53.4985 40.8478V39.8521L56.1157 35.9264C56.4085 35.4878 56.4357 34.925 56.1871 34.4607C55.9385 33.995 55.4542 33.705 54.9271 33.705H53.2542C52.6642 32.0421 51.0757 30.8478 49.2128 30.8478H37.7842ZM50.6414 35.1336C50.6414 35.9221 51.2814 36.5621 52.07 36.5621H52.2571L50.8814 38.6264C50.7257 38.8607 50.6414 39.1378 50.6414 39.4193V40.8478C50.6414 41.635 50 42.2764 49.2128 42.2764H37.7842C36.9971 42.2764 36.3557 41.635 36.3557 40.8478V35.1336C36.3557 34.3464 36.9971 33.705 37.7842 33.705H49.2128C50 33.705 50.6414 34.3464 50.6414 35.1336Z" fill="#D4C17F"/>
<path d="M36.3557 23.705H33.4985V26.5621H36.3557V23.705Z" fill="#D4C17F"/>
<path d="M42.07 23.705H39.2129V26.5621H42.07V23.705Z" fill="#D4C17F"/>
<path d="M47.7844 23.705H44.9272V26.5621H47.7844V23.705Z" fill="#D4C17F"/>
</g>
<defs>
<clipPath id="clip0_94_118">
<rect width="80" height="80" fill="white" transform="translate(0.641602 0.847839)"/>
</clipPath>
</defs>
</svg>
