<svg width="81" height="81" viewBox="0 0 81 81" fill="none" xmlns="http://www.w3.org/2000/svg">
<g clip-path="url(#clip0_94_107)">
<path d="M14.9156 17.4112H47.5366C48.6513 17.4112 49.5553 18.3152 49.5553 19.4298C49.5553 20.5445 48.6513 21.4485 47.5366 21.4485H14.9156C13.801 21.4485 12.897 20.5445 12.897 19.4298C12.897 18.3152 13.8007 17.4112 14.9156 17.4112V17.4112ZM14.9156 26.1365H47.5366C48.6513 26.1365 49.5553 27.0405 49.5553 28.1551C49.5553 29.2697 48.6513 30.1738 47.5366 30.1738H14.9156C13.801 30.1738 12.897 29.2697 12.897 28.1551C12.897 27.0405 13.8007 26.1365 14.9156 26.1365V26.1365ZM14.9156 34.8621H47.5366C48.6513 34.8621 49.5553 35.7661 49.5553 36.8807C49.5553 37.9953 48.6513 38.8994 47.5366 38.8994H14.9156C13.801 38.8994 12.897 37.9953 12.897 36.8807C12.897 35.7661 13.8007 34.8621 14.9156 34.8621V34.8621ZM14.9156 43.5877H47.5366C48.6513 43.5877 49.5553 44.4917 49.5553 45.6063C49.5553 46.7209 48.6513 47.625 47.5366 47.625H14.9156C13.801 47.625 12.897 46.7209 12.897 45.6063C12.897 44.4917 13.8007 43.5877 14.9156 43.5877V43.5877Z" fill="#D4C17F"/>
<path d="M14.9156 21.4485H47.5366C48.6513 21.4485 49.5553 20.5445 49.5553 19.4298C49.5553 18.3152 48.6513 17.4112 47.5366 17.4112H14.9156C13.801 17.4112 12.897 18.3152 12.897 19.4298C12.897 20.5445 13.8007 21.4485 14.9156 21.4485V21.4485Z" fill="#D4C17F"/>
<path d="M14.9156 30.1738H47.5366C48.6513 30.1738 49.5553 29.2698 49.5553 28.1551C49.5553 27.0405 48.6513 26.1365 47.5366 26.1365H14.9156C13.801 26.1365 12.897 27.0405 12.897 28.1551C12.897 29.2698 13.8007 30.1738 14.9156 30.1738V30.1738Z" fill="#D4C17F"/>
<path d="M14.9156 38.8994H47.5366C48.6513 38.8994 49.5553 37.9953 49.5553 36.8807C49.5553 35.7661 48.6513 34.8621 47.5366 34.8621H14.9156C13.801 34.8621 12.897 35.7661 12.897 36.8807C12.897 37.9953 13.8007 38.8994 14.9156 38.8994V38.8994Z" fill="#D4C17F"/>
<path d="M14.9156 47.6249H47.5366C48.6513 47.6249 49.5553 46.7209 49.5553 45.6063C49.5553 44.4917 48.6513 43.5876 47.5366 43.5876H14.9156C13.801 43.5876 12.897 44.4917 12.897 45.6063C12.897 46.7209 13.8007 47.6249 14.9156 47.6249V47.6249Z" fill="#D4C17F"/>
<path d="M80.5376 33.6579C80.5376 33.1227 80.325 32.6093 79.9465 32.2304L74.4436 26.7279C74.0651 26.3494 73.5517 26.1368 73.0161 26.1368C72.4805 26.1368 71.9674 26.3494 71.5886 26.7279L61.9139 36.4026V6.75644C61.9139 5.64181 61.0102 4.73779 59.8952 4.73779H2.55624C1.44128 4.73779 0.537598 5.64181 0.537598 6.75644V74.3741C0.537598 75.4887 1.44128 76.3927 2.55624 76.3927H59.8956C61.0105 76.3927 61.9142 75.4887 61.9142 74.3741V53.1177L79.9465 35.0855C80.325 34.707 80.5376 34.1936 80.5376 33.6579V33.6579ZM4.57489 72.3554V8.77509H57.8769V40.4399L46.0036 52.3133H14.9154C13.8008 52.3133 12.8968 53.2173 12.8968 54.3319C12.8968 55.4465 13.8008 56.3506 14.9154 56.3506H41.9663L41.6188 56.6981C41.3573 56.9595 41.1726 57.2879 41.0852 57.6472L39.6866 63.3835H31.2257C30.1111 63.3835 29.2071 64.2876 29.2071 65.4022C29.2071 66.5168 30.1111 67.4208 31.2257 67.4208C31.2257 67.4208 41.2228 67.4208 41.2719 67.4208C41.431 67.4208 41.5915 67.402 41.75 67.3633L49.0268 65.5892C49.3862 65.5018 49.7145 65.3171 49.976 65.0557L57.8763 57.1553V72.3561H4.57489V72.3554ZM47.5213 61.7999L44.0196 62.6538L44.8735 59.1521L73.0161 31.0095L75.6642 33.6576L47.5213 61.7999V61.7999Z" fill="#D4C17F"/>
</g>
<defs>
<clipPath id="clip0_94_107">
<rect width="80" height="80" fill="white" transform="translate(0.537598 0.565247)"/>
</clipPath>
</defs>
</svg>
