<svg width="80" height="80" viewBox="0 0 80 80" fill="none" xmlns="http://www.w3.org/2000/svg">
<path d="M3.23751 66.0877C4.13456 66.0877 4.85219 65.37 4.85219 64.473V56.2691C4.85219 55.0133 5.40673 53.8226 6.36901 53.0398C13.6595 47.054 21.5698 43.0581 23.0866 42.3242C23.8369 41.9653 24.2936 41.2151 24.2936 40.3996V28.8685C24.2936 28.3303 24.0163 27.8247 23.5759 27.5311C22.5158 26.8298 21.8797 25.6555 21.8797 24.3833V12.3955C21.8797 7.33945 25.9898 3.22936 31.0459 3.22936H33.6228C38.6789 3.22936 42.789 7.33945 42.789 12.3955V24.3507C42.789 25.6228 42.1529 26.7971 41.0928 27.4985C40.6361 27.7921 40.3751 28.2977 40.3751 28.8359V40.367C40.3751 41.264 41.0928 41.9817 41.9898 41.9817C42.8869 41.9817 43.6045 41.264 43.6045 40.367V29.6188C45.1213 28.2977 46.0183 26.3731 46.0183 24.3344V12.3955C46.0183 5.56167 40.4567 0 33.6228 0H31.0296C24.1957 0 18.634 5.56167 18.634 12.3955V24.3507C18.634 26.3894 19.5148 28.314 21.0479 29.6351V39.7146C18.5688 40.9704 11.1804 44.9011 4.31396 50.5443C2.60143 51.947 1.62283 54.0347 1.62283 56.2691V64.473C1.62283 65.3537 2.34047 66.0877 3.23751 66.0877Z" fill="#D4C17F"/>
<path d="M36.2813 42.0795C35.3843 42.0795 34.6667 42.7971 34.6667 43.6942C34.6667 44.3792 34.3731 44.9827 33.9001 45.423C33.8022 45.4883 33.7044 45.5535 33.6228 45.6514C33.2477 45.9123 32.791 46.0591 32.318 46.0591C31.0296 46.0591 29.9694 44.999 29.9694 43.7105C29.9694 42.8135 29.2518 42.0958 28.3547 42.0958C27.4577 42.0958 26.7401 42.8135 26.7401 43.7105C26.7401 45.0316 27.1967 46.2385 27.9796 47.2008L26.789 74.895C26.7727 75.368 26.9684 75.841 27.3272 76.1672L31.1274 79.5923C31.4373 79.8695 31.8287 80 32.2039 80C32.5953 80 32.9867 79.8532 33.2803 79.5759L37.1294 76.0856C37.4883 75.7594 37.684 75.3028 37.6677 74.8135L36.4281 47.4292C37.3415 46.4343 37.896 45.1132 37.896 43.6616C37.896 42.7972 37.1784 42.0795 36.2813 42.0795ZM32.1876 76.2161L30.0346 74.2752L31.1274 49.1417C31.5189 49.2232 31.9103 49.2722 32.318 49.2722C32.6442 49.2722 32.9541 49.2396 33.264 49.1906L34.3894 74.2263L32.1876 76.2161Z" fill="#D4C17F"/>
<path d="M65.5087 51.3435H76.7625C77.6595 51.3435 78.3772 50.6259 78.3772 49.7288C78.3772 46.581 77.2355 43.5637 75.1478 41.2151C72.7013 38.4424 69.1947 36.8603 65.4924 36.8603C64.5953 36.8603 63.8777 37.578 63.8777 38.475V49.7288C63.894 50.6259 64.6116 51.3435 65.5087 51.3435ZM67.1234 40.2202C69.2763 40.579 71.2661 41.6881 72.734 43.3517C73.9246 44.7054 74.7075 46.3527 75.0173 48.1142H67.1234V40.2202Z" fill="#D4C17F"/>
<path d="M59.1641 71.8451C67.9715 71.8451 75.1315 64.685 75.1315 55.8777C75.1315 54.9806 74.4139 54.263 73.5168 54.263H60.7788V41.525C60.7788 40.6279 60.0612 39.9103 59.1641 39.9103C50.3568 39.9103 43.1967 47.0703 43.1967 55.8777C43.1967 64.685 50.3568 71.8451 59.1641 71.8451ZM57.5494 43.2538V55.8777C57.5494 56.7747 58.2671 57.4924 59.1641 57.4924H71.788C70.9888 63.7554 65.6392 68.6157 59.1641 68.6157C52.1509 68.6157 46.4261 62.9072 46.4261 55.8777C46.4261 49.419 51.2865 44.053 57.5494 43.2538Z" fill="#D4C17F"/>
</svg>
