<svg width="81" height="80" viewBox="0 0 81 80" fill="none" xmlns="http://www.w3.org/2000/svg">
<g clip-path="url(#clip0_94_148)">
<path d="M50.661 25.6545C45.1314 22.4643 36.199 22.4643 30.7021 25.6545C25.2052 28.8446 25.2379 34.0307 30.7675 37.2208C36.2971 40.411 45.2296 40.411 50.7265 37.2208C56.2234 34.0143 56.1907 28.8446 50.661 25.6545ZM48.1253 30.6769C47.6508 30.8242 47.1764 30.9878 46.702 31.135C46.4075 31.2168 46.2275 31.2332 46.0967 31.1677C46.0312 31.1186 45.9658 31.0532 45.9003 30.955C45.5895 30.4479 45.1151 30.0062 44.477 29.6463C44.3952 29.5972 44.2971 29.5481 44.1989 29.499C43.9862 29.3845 43.7899 29.3027 43.5282 29.2373C42.612 29.0246 41.794 29.3681 41.9085 29.9407C41.9576 30.2352 42.1212 30.497 42.3175 30.7751C42.6447 31.2332 43.0046 31.6912 43.2337 32.182C44.0026 33.7198 42.3339 35.2413 39.6509 35.3885C38.6857 35.4376 37.7695 35.3231 36.9188 35.045C36.5425 34.9305 36.2644 34.9305 35.9863 35.1268C35.7082 35.3067 35.3973 35.4703 35.1029 35.6339C34.8411 35.7812 34.563 35.7975 34.3012 35.6503C34.1049 35.5521 33.9249 35.4376 33.7286 35.3395C33.5978 35.2577 33.4669 35.1922 33.336 35.1104C33.0579 34.9468 33.0906 34.7832 33.3524 34.6196C33.565 34.4888 33.7777 34.3742 33.974 34.2434C34.4485 33.9652 34.4485 33.9489 34.0558 33.638C33.565 33.2454 33.1233 32.8364 32.8452 32.3783C32.6325 32.0184 32.6816 31.9366 33.2542 31.7403C33.6795 31.6094 34.0885 31.4622 34.5139 31.3313C34.8247 31.2332 35.0047 31.2168 35.1356 31.2822C35.2174 31.3313 35.2665 31.3968 35.3319 31.5113C35.61 32.0348 36.0844 32.4929 36.657 32.9346C36.7552 33.0164 36.8697 33.0818 36.9679 33.1473C37.2787 33.3272 37.6386 33.4581 38.0476 33.5562C39.111 33.8016 40.0599 33.3763 39.9617 32.7055C39.929 32.4765 39.8145 32.2802 39.6672 32.0675C39.3073 31.5276 38.8329 31.0205 38.5875 30.4479C38.1949 29.5317 38.3748 28.6974 39.6345 28.043C41.0742 27.3068 42.6774 27.2577 44.3789 27.7158C45.0823 27.9121 45.066 27.9121 45.6059 27.6013C45.7858 27.4868 45.9658 27.3886 46.1457 27.2904C46.5547 27.0614 46.702 27.0614 47.111 27.2904C47.2418 27.3559 47.3564 27.4377 47.4872 27.5031C48.3543 27.9939 48.3543 27.9939 47.5036 28.5011C46.8983 28.8446 46.8983 28.8446 47.4054 29.2536C47.7981 29.5645 48.1089 29.8916 48.3379 30.2516C48.5179 30.4315 48.4525 30.5788 48.1253 30.6769ZM58.0393 41.4417C56.5179 42.3251 54.0475 42.3251 52.5097 41.4417C50.9882 40.5582 50.9719 39.1186 52.4933 38.2352C54.0148 37.3517 56.4851 37.3517 58.023 38.2352C59.5608 39.1186 59.5771 40.5582 58.0393 41.4417ZM28.9188 24.6238C27.3974 25.5072 24.927 25.5072 23.3892 24.6238C21.8514 23.7404 21.8514 22.3007 23.3729 21.4173C24.8943 20.5338 27.3647 20.5338 28.9025 21.4173C30.4239 22.3007 30.4403 23.7404 28.9188 24.6238ZM78.7345 34.5869L35.1356 9.40916C32.6162 7.95313 28.5262 7.95313 26.0232 9.40916L2.64498 22.9878C0.141924 24.4438 0.158284 26.816 2.6777 28.272L46.2766 53.4498C48.796 54.9058 52.886 54.9058 55.389 53.4498L78.7508 39.8711C81.2703 38.4151 81.2539 36.0429 78.7345 34.5869ZM55.8635 48.6564C55.5853 48.3946 55.2582 48.1492 54.8655 47.9202C52.3134 46.4478 48.1743 46.4478 45.6386 47.9202C45.4423 48.0347 45.2787 48.1492 45.0987 48.2801L11.2502 28.7301C11.5774 28.5992 11.8883 28.452 12.1827 28.2884C14.7185 26.816 14.7022 24.4275 12.15 22.9551C11.8719 22.7915 11.5774 22.6443 11.2666 22.5297L25.2215 14.4153C25.4342 14.5952 25.6796 14.7588 25.9577 14.9224C28.5098 16.3948 32.6489 16.3948 35.1847 14.9224C35.4791 14.7588 35.7245 14.5789 35.9536 14.3825L69.9165 33.9816C69.4585 34.1452 69.0495 34.3252 68.6568 34.5542C66.1211 36.0266 66.1211 38.4315 68.6896 39.9039C69.0822 40.1329 69.5239 40.3129 69.982 40.4765L55.8635 48.6564ZM1.53251 33.3108C2.64498 32.7383 4.36276 32.8201 5.42615 33.4417L51.0046 59.7483L75.6425 45.4171C76.7059 44.7954 78.4564 44.7954 79.5361 45.4171C80.6159 46.0388 80.6159 47.0531 79.5525 47.6748L53.3604 62.8894C52.0843 63.642 49.9903 63.642 48.6979 62.8894L47.7817 62.3659L47.1437 61.9896L1.45071 35.6176C0.338242 34.9796 0.354602 33.9162 1.53251 33.3108ZM79.5852 55.9038L53.3931 71.1184C52.1171 71.8709 50.023 71.8709 48.7306 71.1184L47.8308 70.5949L47.1764 70.2186L1.48343 43.8466C0.370962 43.2085 0.403681 42.1452 1.58159 41.5398C2.6777 40.9672 4.41184 41.049 5.47522 41.6707L51.0373 67.9773L75.6752 53.6625C76.7549 53.0408 78.4891 53.0408 79.5688 53.6625C80.6486 54.2678 80.6649 55.2821 79.5852 55.9038Z" fill="#D4C17F"/>
</g>
<defs>
<clipPath id="clip0_94_148">
<rect width="80" height="80" fill="white" transform="translate(0.632324)"/>
</clipPath>
</defs>
</svg>
