<svg width="69" height="80" viewBox="0 0 69 80" fill="none" xmlns="http://www.w3.org/2000/svg">
<path d="M68.544 11.6704V0H0.739258V11.6704H4.18675V68.3296H0.739258V80H68.5441V68.3296H65.0965V11.6704H68.544ZM5.4919 4.75265H63.7913V6.9178H55.6568H13.6263H5.4919V4.75265ZM44.3404 39.9999C51.0596 36.4895 55.6568 29.4524 55.6568 21.3611V11.6704H60.3437V68.3292H55.6568V58.6386C55.6568 50.5474 51.0596 43.5104 44.3404 39.9999ZM24.9427 39.9999C18.2234 43.5104 13.6263 50.5474 13.6263 58.6388V68.3294H8.93924V11.6704H13.6261V21.3611C13.6263 29.4524 18.2234 36.4895 24.9427 39.9999ZM34.6414 37.6235C26.9525 37.6235 20.4933 32.2596 18.8077 25.0775C19.3091 25.2865 19.7842 25.5309 20.2998 25.7957C22.0927 26.7171 24.125 27.7617 28.0133 27.7617C31.9019 27.7617 33.9342 26.7173 35.727 25.7957C37.2928 24.9909 38.5293 24.3556 41.2684 24.3556C44.0071 24.3556 45.244 24.9912 46.8096 25.7957C47.6893 26.2479 48.6417 26.7356 49.8523 27.1126C47.5243 33.2493 41.5846 37.6235 34.6414 37.6235ZM34.6415 42.3763C42.8017 42.3763 49.5764 48.4177 50.7299 56.2625H18.5531C19.7069 48.4177 26.4814 42.3763 34.6415 42.3763ZM48.9826 21.5687C47.1898 20.6473 45.1573 19.6028 41.2689 19.6028C37.3804 19.6028 35.3479 20.6471 33.5551 21.5687C31.9894 22.3736 30.7528 23.0089 28.0137 23.0089C25.2751 23.0089 24.0384 22.3732 22.4728 21.5687C21.3491 20.9912 20.1148 20.3596 18.3791 19.9721V11.6704H50.9043V21.3609C50.9043 21.7239 50.8912 22.0837 50.8676 22.4411C50.2171 22.2028 49.6342 21.9037 48.9826 21.5687ZM18.3789 61.0152H50.9042V68.3294H18.3789V61.0152ZM63.7915 75.2472H5.4919V73.0821H13.6264H55.657H63.7915V75.2472V75.2472Z" fill="#D4C17F"/>
</svg>
